<?xml version="1.0" standalone="no"?>
<!DOCTYPE svg PUBLIC "-//W3C//DTD SVG 20010904//EN"
 "http://www.w3.org/TR/2001/REC-SVG-20010904/DTD/svg10.dtd">
<svg version="1.0" xmlns="http://www.w3.org/2000/svg"
 width="150.000000pt" height="150.000000pt" viewBox="0 0 150.000000 150.000000"
 preserveAspectRatio="xMidYMid meet">
<metadata>
Created by potrace 1.14, written by Peter Selinger 2001-2017
</metadata>
<g transform="translate(0.000000,150.000000) scale(0.100000,-0.100000)"
fill="#000000" stroke="none">
<path d="M315 937 c-7 -40 -13 -95 -21 -174 l-6 -63 38 -1 c22 0 54 -2 72 -4
17 -2 32 0 33 3 2 9 5 79 9 175 2 42 1 79 -1 82 -3 2 -30 6 -62 8 l-56 5 -6
-31z m42 -102 l-5 -65 29 0 c15 0 31 -4 34 -10 4 -6 -12 -10 -40 -10 l-47 0 6
53 c3 28 5 62 6 75 0 12 5 22 11 22 6 0 8 -24 6 -65z"/>
<path d="M588 911 c3 -35 0 -56 -9 -68 -12 -15 -12 -16 1 -8 12 7 13 6 5 -6
-9 -12 -12 -115 -3 -124 1 -2 40 -6 84 -10 45 -3 96 -8 113 -10 17 -2 33 0 36
5 3 4 8 46 11 92 3 45 7 93 9 104 3 12 -1 26 -8 32 -10 8 -147 24 -217 25 -8
0 -18 4 -21 9 -3 5 -4 -13 -1 -41z m130 -73 c19 -51 19 -51 24 -19 3 17 1 34
-4 37 -21 13 -6 30 23 26 23 -3 29 -8 23 -21 -4 -9 -9 -40 -12 -68 -4 -48 -7
-53 -29 -53 -18 0 -27 9 -39 38 -31 78 -34 80 -31 22 2 -53 1 -55 -23 -52 -33
5 -34 6 -20 33 7 12 10 41 7 65 l-5 44 34 0 c30 0 34 -4 52 -52z"/>
<path d="M39 938 c-3 -15 -7 -42 -13 -93 -4 -33 -9 -74 -12 -92 -3 -17 -1 -33
3 -36 8 -5 161 -19 223 -20 31 -1 34 2 36 28 3 40 6 187 5 200 -1 9 -240 22
-242 13z m196 -38 c17 -15 20 -56 4 -66 -8 -4 -8 -9 0 -17 19 -19 12 -56 -12
-72 -14 -9 -38 -13 -63 -11 -21 3 -47 5 -57 5 -17 1 -18 8 -13 74 3 39 5 80 6
91 0 17 6 18 60 13 34 -3 67 -11 75 -17z"/>
<path d="M120 871 c0 -31 1 -31 50 -31 37 0 52 4 57 16 9 23 -10 36 -61 41
-46 6 -46 6 -46 -26z"/>
<path d="M112 791 c-1 -19 3 -31 10 -32 7 -1 30 -2 50 -4 44 -4 68 17 51 43
-7 11 -27 18 -59 20 -49 3 -50 3 -52 -27z"/>
<path d="M1219 898 c-2 -107 -8 -199 -14 -208 -4 -6 5 -10 19 -10 25 0 26 2
26 65 0 44 4 65 12 65 8 0 9 3 2 10 -6 6 -8 33 -4 65 6 52 5 55 -17 55 -20 0
-23 -5 -24 -42z"/>
<path d="M1308 933 c39 -16 33 -103 -9 -114 -21 -6 -21 -7 -3 -8 31 -2 44 -21
44 -67 0 -71 49 -96 104 -53 32 25 33 51 4 79 -12 11 -19 21 -15 21 4 1 13 2
19 3 7 0 14 9 16 19 4 20 -27 23 -59 7 -24 -13 -26 -65 -3 -74 16 -6 16 -29 0
-26 -5 1 -13 -4 -17 -12 -6 -8 -9 -1 -9 22 0 41 -23 80 -48 80 -12 1 -9 5 10
15 32 18 43 47 28 74 -11 22 -41 41 -62 40 -11 0 -11 -1 0 -6z"/>
<path d="M1135 900 c-3 -5 -32 -10 -63 -10 -43 0 -53 -3 -44 -12 17 -17 17
-198 0 -198 -10 0 -10 -2 0 -9 7 -4 32 -7 55 -6 23 2 48 -2 55 -7 9 -8 12 1
12 38 l-1 49 -14 -33 c-11 -26 -20 -33 -37 -30 -20 3 -22 9 -22 61 -1 64 9 82
23 45 6 -14 10 -17 11 -8 1 8 3 25 4 37 1 12 -1 28 -6 35 -6 10 -8 8 -8 -4 0
-10 -4 -18 -10 -18 -11 0 -14 33 -4 42 11 12 44 -5 44 -23 0 -11 5 -19 10 -19
6 0 10 18 10 40 0 41 -4 48 -15 30z"/>
<path d="M480 855 c5 -25 11 -30 35 -30 26 0 30 4 30 27 1 23 -3 27 -35 30
-36 3 -36 3 -30 -27z"/>
<path d="M851 800 c0 -62 2 -70 11 -47 11 32 51 46 74 26 15 -12 16 -10 12 23
-2 20 0 34 4 32 4 -3 8 -36 8 -75 0 -51 3 -69 14 -69 10 0 13 20 12 90 0 50
-3 91 -6 91 -3 1 -33 2 -67 3 l-63 2 1 -76z"/>
<path d="M460 790 c0 -11 5 -20 10 -20 13 0 13 -66 -1 -92 -6 -11 -8 -22 -5
-25 9 -10 70 -10 89 -1 18 9 24 38 7 38 -6 0 -10 27 -10 60 l0 60 -45 0 c-38
0 -45 -3 -45 -20z"/>
<path d="M880 761 c-5 -11 -10 -27 -10 -36 0 -9 -3 -14 -8 -12 -4 3 -5 -20 -2
-51 l5 -57 63 -5 62 -5 0 43 c0 35 -3 42 -20 42 -20 0 -24 8 -20 48 4 47 -49
72 -70 33z m40 -72 c14 0 19 -3 12 -6 -19 -7 -62 6 -62 19 0 9 3 9 12 0 7 -7
23 -12 38 -13z"/>
<path d="M1430 590 c0 -4 7 -7 15 -6 23 3 26 12 5 13 -11 1 -20 -2 -20 -7z"/>
<path d="M1385 580 c3 -5 8 -10 11 -10 2 0 4 5 4 10 0 6 -5 10 -11 10 -5 0 -7
-4 -4 -10z"/>
<path d="M1173 535 c-29 -20 -39 -68 -19 -96 17 -25 76 -63 76 -49 0 6 9 10
20 10 11 0 20 5 20 10 0 6 -10 8 -24 4 -14 -3 -35 -3 -48 2 l-23 7 25 9 c16 6
26 5 28 -1 2 -5 10 -7 18 -4 21 8 0 29 -28 28 -13 -1 -30 -5 -37 -9 -17 -11
-23 -2 -23 30 0 30 33 64 61 64 44 0 85 -66 60 -96 -7 -8 -9 -18 -5 -21 10
-11 26 18 26 48 0 41 -36 79 -74 79 -17 0 -41 -7 -53 -15z"/>
<path d="M1220 515 c14 -17 5 -49 -10 -40 -6 4 -9 12 -8 18 2 7 0 13 -5 15
-17 5 -25 1 -30 -19 -4 -14 -2 -19 8 -16 7 3 17 1 23 -5 7 -7 16 -6 29 1 14 7
23 7 30 0 8 -8 11 -4 10 14 -2 17 -11 28 -30 35 -24 9 -27 9 -17 -3z"/>
<path d="M1053 513 c9 -2 17 -12 17 -22 0 -10 7 -18 15 -18 11 0 12 4 4 14 -6
7 -8 13 -3 13 5 0 2 5 -6 10 -8 5 -22 9 -30 9 -11 -1 -10 -3 3 -6z"/>
<path d="M1003 488 c-2 -18 0 -20 7 -8 12 18 13 30 2 30 -4 0 -9 -10 -9 -22z"/>
<path d="M1027 478 c-4 -15 -2 -17 7 -9 7 6 16 8 19 4 4 -3 7 0 7 9 0 21 -28
18 -33 -4z"/>
<path d="M1087 453 c-5 -4 -24 -6 -44 -4 -27 2 -33 0 -27 -11 6 -10 4 -10 -9
1 -17 14 -23 5 -9 -14 11 -15 32 -17 48 -4 11 9 14 9 14 -1 0 -9 4 -9 13 -2 6
6 15 11 20 11 8 1 10 7 5 22 -2 6 -7 7 -11 2z"/>
</g>
</svg>
