<?xml version="1.0" standalone="no"?>
<!DOCTYPE svg PUBLIC "-//W3C//DTD SVG 20010904//EN"
 "http://www.w3.org/TR/2001/REC-SVG-20010904/DTD/svg10.dtd">
<svg version="1.0" xmlns="http://www.w3.org/2000/svg"
 width="260.000000pt" height="260.000000pt" viewBox="0 0 260.000000 260.000000"
 preserveAspectRatio="xMidYMid meet">
<metadata>
Created by potrace 1.14, written by Peter Selinger 2001-2017
</metadata>
<g transform="translate(0.000000,260.000000) scale(0.100000,-0.100000)"
fill="#000000" stroke="none">
<path d="M1339 2578 c-1 -17 -3 -18 -6 -6 -4 15 -8 15 -24 5 -16 -10 -21 -9
-29 3 -8 13 -10 12 -10 -2 0 -10 -5 -18 -11 -18 -5 0 -8 4 -5 9 3 5 -1 11 -9
15 -8 3 -18 -2 -23 -10 -5 -9 -12 -15 -15 -15 -4 1 -8 1 -9 0 -30 -9 -48 -7
-42 3 5 8 0 7 -11 -2 -17 -14 -17 -13 -10 10 l7 25 -23 -26 c-15 -16 -34 -25
-51 -24 -16 0 -28 -2 -28 -7 0 -7 -68 -24 -83 -20 -5 1 -6 -2 -2 -7 3 -6 13
-7 22 -4 11 4 14 3 9 -5 -4 -7 -20 -12 -37 -12 -16 0 -37 -4 -47 -9 -9 -5 -46
-19 -82 -30 -49 -16 -66 -18 -72 -8 -5 8 -8 6 -8 -6 0 -10 -4 -15 -10 -12 -5
3 -10 1 -10 -5 0 -6 -4 -8 -10 -5 -6 3 -10 2 -10 -3 0 -5 -19 -18 -42 -28 -23
-10 -53 -29 -67 -41 -13 -13 -28 -23 -34 -23 -5 0 -20 -11 -33 -25 -13 -14
-27 -25 -31 -25 -5 0 -15 -9 -23 -21 -30 -42 -87 -98 -94 -92 -4 4 -5 1 -2 -7
3 -8 -4 -26 -15 -40 -11 -14 -17 -19 -13 -11 5 9 3 12 -5 7 -6 -4 -8 -12 -5
-18 4 -6 1 -14 -7 -18 -7 -5 -14 -14 -15 -22 -1 -7 -17 -44 -34 -83 -18 -38
-32 -72 -32 -75 0 -3 -4 -15 -9 -28 -5 -13 -11 -37 -14 -55 -4 -17 -14 -41
-23 -52 -16 -19 -16 -19 2 -5 18 14 19 14 9 -5 -6 -11 -11 -49 -12 -85 -1 -36
-6 -69 -11 -74 -13 -13 -13 -39 0 -31 6 4 10 -5 10 -19 0 -14 -5 -26 -12 -26
-6 0 -3 -9 7 -20 10 -11 13 -20 7 -20 -7 0 -12 -5 -12 -11 0 -5 5 -7 10 -4 6
3 10 2 10 -4 0 -5 -4 -12 -9 -15 -5 -4 -8 -14 -6 -24 2 -9 4 -19 4 -22 1 -3 6
2 11 10 9 13 10 13 10 0 0 -9 -6 -22 -12 -29 -11 -11 -10 -13 0 -7 19 11 36
-43 23 -72 -7 -15 -7 -21 -1 -17 9 5 27 -26 35 -60 2 -5 4 -17 6 -25 2 -8 7
-18 12 -21 10 -7 18 -69 9 -68 -29 4 -34 -2 -14 -17 12 -8 20 -20 17 -25 -4
-5 -1 -9 4 -9 13 0 10 -22 -4 -33 -6 -5 -4 -7 5 -4 8 2 15 10 15 17 0 7 5 15
11 17 11 4 10 -54 -2 -65 -4 -4 -4 1 -1 11 4 10 3 16 -2 12 -6 -3 -9 -14 -8
-25 1 -10 5 -16 9 -14 4 3 8 -9 8 -26 0 -17 -4 -29 -10 -25 -5 3 -7 13 -4 23
4 10 3 13 -3 6 -4 -6 -15 -10 -24 -9 -16 3 -20 -27 -6 -41 7 -7 11 11 8 29 -1
5 3 6 9 2 6 -3 7 -11 4 -17 -4 -7 -2 -8 5 -4 7 5 10 2 9 -6 -2 -7 3 -12 10
-10 8 1 11 -2 7 -8 -4 -6 1 -7 11 -3 14 5 14 7 1 14 -17 10 -11 59 7 59 6 0 4
5 -4 10 -13 9 -13 10 0 10 8 0 21 -9 27 -19 10 -16 9 -20 -3 -25 -9 -3 -12 -1
-9 4 3 6 2 10 -4 10 -5 0 -9 -8 -8 -19 1 -12 7 -17 19 -13 10 2 18 -1 18 -7 0
-7 4 -10 8 -7 5 3 9 -1 9 -9 0 -8 -5 -13 -11 -12 -5 1 -10 -3 -11 -10 0 -6 -4
-15 -9 -20 -5 -5 -6 -2 -1 6 5 9 3 12 -6 9 -8 -3 -12 -12 -11 -19 2 -8 0 -11
-4 -7 -4 4 -14 2 -23 -4 -9 -7 -5 0 8 15 24 27 17 39 -8 15 -11 -11 -14 -10
-18 0 -3 6 -10 9 -16 5 -7 -4 -6 1 2 10 8 10 9 17 3 17 -6 0 -18 -10 -26 -22
-9 -12 -16 -18 -16 -12 0 5 5 15 12 22 9 9 9 12 1 12 -7 0 -15 -4 -18 -10 -4
-6 -16 -3 -32 7 -20 13 -28 14 -31 5 -2 -7 -7 -10 -11 -8 -4 3 -8 -1 -8 -9 0
-8 9 -17 19 -21 10 -3 18 -10 18 -15 0 -13 -4 -12 -44 12 -20 12 -36 18 -36
15 0 -3 12 -12 28 -20 23 -12 25 -15 10 -21 -10 -4 -18 -12 -18 -18 0 -5 9 -2
20 8 11 10 20 13 20 7 0 -6 -5 -14 -10 -17 -6 -4 -8 -10 -5 -14 2 -5 -7 -13
-20 -19 -18 -8 -23 -16 -18 -29 6 -16 5 -17 -12 -3 -10 8 -16 10 -12 4 4 -7 0
-14 -8 -18 -8 -3 -19 3 -24 12 -9 14 -11 14 -12 2 -1 -8 -1 -19 0 -24 1 -5 -5
-6 -13 -3 -9 4 -13 1 -10 -6 2 -8 -4 -13 -17 -14 -18 -2 -19 0 -7 15 7 9 18
20 23 24 10 7 5 9 -27 12 -14 1 -20 -62 -6 -70 6 -4 14 0 19 7 7 12 9 11 9 -1
0 -13 2 -13 9 -1 5 8 17 16 26 17 13 2 16 -3 11 -19 -5 -22 -5 -22 11 -2 15
20 15 20 9 -1 -4 -14 -2 -21 8 -21 9 0 14 8 13 20 -1 12 5 21 15 22 17 3 15
-16 -3 -41 -5 -6 -5 -15 -1 -20 4 -4 -1 -2 -10 5 -12 9 -18 10 -18 2 0 -6 -5
-11 -11 -11 -5 0 -7 5 -4 10 3 6 3 10 -2 10 -12 -1 -43 -26 -38 -32 3 -2 -5
-4 -18 -3 -12 2 -21 8 -19 14 1 6 -2 11 -8 11 -14 0 -12 -23 2 -39 7 -8 8 -11
2 -8 -8 5 -11 -29 -12 -114 -1 -66 3 -117 8 -114 5 3 12 1 15 -5 4 -6 1 -9 -7
-8 -10 2 -13 -17 -13 -84 -1 -58 2 -85 10 -80 5 3 5 -1 -2 -9 -8 -10 -12 -46
-11 -97 1 -78 2 -82 22 -79 12 1 27 6 35 11 9 6 12 5 8 0 -4 -7 83 -10 233
-10 131 0 236 4 234 8 -3 5 -1 8 5 8 6 0 8 7 5 15 -4 8 -10 12 -15 9 -5 -3 -7
-10 -4 -15 4 -5 1 -9 -4 -9 -6 0 -11 7 -11 15 0 8 -5 15 -11 15 -6 0 -8 -9 -4
-22 5 -18 4 -20 -4 -8 -9 12 -11 13 -11 1 0 -8 -3 -12 -6 -9 -3 4 -1 16 6 27
7 14 7 21 0 21 -6 0 -16 -11 -22 -25 -9 -21 -13 -23 -20 -11 -5 8 -15 13 -22
10 -7 -3 -16 2 -19 10 -4 9 -12 16 -19 16 -9 0 -9 -3 -1 -11 13 -13 6 -39 -9
-39 -7 0 -6 5 1 13 6 8 8 17 4 20 -11 11 -23 8 -21 -5 2 -7 -4 -13 -12 -13 -8
0 -18 -4 -22 -10 -7 -9 -12 8 -9 28 1 5 -4 7 -11 4 -7 -2 -12 -13 -10 -23 2
-17 1 -18 -11 -3 -11 15 -15 15 -31 3 -11 -7 -23 -11 -27 -8 -12 7 -11 34 1
34 5 0 7 -7 3 -16 -5 -14 -3 -15 15 -5 12 7 22 16 22 22 0 6 -5 7 -12 3 -7 -5
-8 -3 -3 6 6 10 11 10 20 -4 10 -13 14 -14 24 -3 6 8 8 17 5 20 -4 4 1 18 11
33 15 23 15 26 2 21 -11 -4 -14 -2 -11 8 5 12 9 12 28 0 13 -8 26 -12 31 -8 4
5 5 2 1 -4 -4 -7 -2 -13 4 -13 6 0 10 8 8 17 -2 10 -11 17 -20 15 -8 -1 -22 6
-29 15 -13 17 -12 17 4 4 15 -12 20 -12 26 -2 6 10 10 9 14 -3 4 -9 11 -16 17
-16 6 0 9 4 6 8 -2 4 4 8 14 9 15 1 14 -2 -7 -23 -14 -14 -23 -28 -20 -31 7
-6 42 13 42 24 0 4 6 7 13 6 8 0 11 5 8 15 -5 13 -3 13 9 -2 10 -13 11 -24 5
-36 -9 -18 -4 -30 12 -30 5 0 7 4 4 8 -2 4 -1 14 4 22 5 8 4 22 -1 33 -9 16
-8 17 10 7 12 -6 20 -16 18 -23 -1 -6 7 -13 18 -15 15 -2 21 3 22 17 1 14 -3
18 -15 14 -15 -4 -15 -3 -2 6 12 8 19 6 31 -11 15 -19 17 -20 26 -4 8 15 11
14 21 -9 7 -15 10 -31 7 -36 -4 -5 -2 -9 4 -9 17 0 22 19 12 39 -8 15 -7 20 6
25 9 4 20 1 25 -6 11 -18 10 -25 -6 -40 -11 -12 -11 -17 0 -33 21 -29 17 -33
-28 -31 -40 2 -68 -8 -68 -23 0 -3 25 -7 55 -7 37 -1 56 3 59 12 6 16 26 19
26 3 0 -5 -4 -7 -10 -4 -5 3 -10 2 -10 -2 0 -5 61 -9 135 -10 88 0 132 3 128
10 -4 6 -1 7 8 1 21 -13 312 -13 321 0 5 8 8 7 8 -1 0 -9 22 -12 74 -11 50 1
73 5 69 12 -4 7 -1 7 8 0 16 -13 57 -13 78 0 9 6 12 5 7 -2 -4 -7 84 -10 294
-10 283 1 300 2 283 18 -10 9 -27 28 -37 43 -11 14 -24 23 -29 20 -6 -3 -7 -1
-3 6 6 8 12 9 20 2 7 -6 17 -7 21 -3 5 4 5 1 0 -7 -5 -9 -4 -12 3 -7 8 5 10 1
6 -11 -5 -14 -4 -15 4 -4 6 8 15 10 23 6 8 -5 3 3 -11 16 -14 13 -27 20 -28
16 -2 -4 -10 -3 -18 4 -11 9 -18 8 -31 -2 -10 -7 -15 -9 -11 -5 4 5 3 15 -3
22 -8 10 -6 12 10 9 12 -2 25 -6 30 -10 5 -3 12 -1 16 4 9 15 35 1 28 -15 -3
-8 0 -14 7 -14 6 0 8 5 5 10 -3 6 1 13 10 17 10 3 21 0 26 -8 7 -11 9 -11 9 4
0 9 -6 18 -12 18 -7 1 -20 2 -28 3 -10 1 -14 10 -12 31 1 17 3 58 4 92 0 35 4
60 9 58 4 -3 10 -1 13 4 3 5 0 11 -7 14 -8 3 -12 19 -11 38 1 19 2 53 3 77 1
41 2 42 34 42 46 0 65 -18 72 -70 5 -36 3 -49 -13 -68 -11 -12 -30 -22 -43
-22 -19 0 -21 -2 -9 -9 8 -6 18 -7 22 -5 4 3 8 -8 8 -25 0 -16 6 -32 13 -34 7
-3 6 -6 -5 -6 -9 -1 -20 -6 -24 -12 -4 -7 5 -10 27 -7 32 3 32 2 36 -40 2 -30
-1 -44 -11 -48 -8 -3 -12 -12 -10 -19 3 -7 1 -16 -5 -19 -7 -4 -4 -18 8 -39
15 -26 24 -32 52 -32 31 0 35 3 43 36 7 28 16 39 41 48 33 12 88 65 78 75 -4
3 0 6 8 6 8 0 4 7 -9 16 -14 10 -21 22 -18 31 4 10 2 13 -8 10 -16 -6 -43 19
-32 30 3 3 6 0 6 -8 0 -12 2 -12 9 0 5 7 21 14 35 14 23 0 24 1 10 12 -10 6
-14 17 -10 23 4 7 1 12 -9 12 -10 0 -13 5 -9 12 5 7 3 8 -7 2 -23 -14 -51 -16
-43 -2 4 7 3 8 -4 4 -7 -4 -12 -15 -12 -24 0 -12 -3 -13 -12 -4 -8 8 -8 15 3
29 13 17 12 17 -8 0 -14 -12 -23 -15 -28 -7 -3 5 -12 7 -18 4 -8 -4 -7 -2 1 7
11 11 14 12 21 1 7 -11 9 -11 14 2 4 9 1 15 -4 13 -6 -1 -13 9 -15 23 -12 75
-43 93 -164 96 -52 2 -87 1 -78 -2 15 -5 17 -14 11 -77 -3 -40 -11 -75 -17
-79 -8 -5 -7 -8 1 -8 8 0 11 -9 9 -22 -3 -13 -5 -56 -5 -95 -1 -44 -5 -73 -12
-73 -5 0 -7 4 -4 10 3 5 2 10 -4 10 -5 0 -12 -6 -15 -12 -3 -10 -9 -8 -19 4
-8 10 -17 15 -20 12 -3 -3 -3 3 0 15 6 23 -27 45 -35 23 -2 -7 -8 -12 -13 -12
-6 0 -8 4 -4 9 3 5 -3 12 -12 14 -11 2 -9 3 4 2 12 -1 27 2 34 6 8 4 18 1 26
-9 12 -15 13 -15 7 3 -5 18 -4 18 14 -3 22 -24 42 -31 22 -7 -11 13 -8 19 11
17 10 -1 3 36 -9 51 -7 7 -8 18 -4 22 4 5 1 5 -6 1 -11 -7 -17 6 -13 28 1 5
-5 4 -13 -3 -18 -15 -37 -6 -30 14 4 8 11 12 17 8 6 -4 7 -1 2 8 -5 7 -11 32
-13 54 -4 42 -12 58 -19 38 -3 -9 -31 -13 -89 -13 -46 0 -84 -4 -84 -9 0 -5 8
-11 17 -13 13 -2 17 -13 18 -41 0 -20 -3 -37 -8 -37 -4 0 -6 -5 -5 -12 2 -6
-10 -12 -27 -12 -28 -1 -30 1 -33 44 -2 25 -5 47 -7 49 -2 2 -18 5 -35 6 -37
3 -52 14 -22 16 26 2 23 1 90 22 119 37 294 141 392 234 l55 52 5 -104 c5
-106 15 -133 45 -121 14 5 16 24 13 150 -2 119 0 147 13 162 27 34 122 199
118 206 -1 2 7 21 18 43 20 39 57 167 68 233 3 17 8 47 11 65 11 61 5 236 -11
322 -38 205 -149 416 -296 565 -24 24 -43 51 -42 60 1 8 0 10 -3 3 -4 -8 -22
1 -56 27 -27 22 -54 40 -59 40 -5 0 -9 7 -9 15 0 9 -9 15 -23 15 -13 0 -33 9
-44 19 -12 11 -24 17 -27 14 -3 -4 -6 -1 -6 4 0 6 3 13 8 16 4 2 1 2 -7 0 -7
-2 -19 1 -26 7 -7 6 -17 10 -21 9 -12 -3 -64 10 -94 23 -14 7 -28 11 -32 10
-5 -1 -8 2 -8 6 0 4 -10 8 -22 9 -11 1 -24 6 -27 11 -3 5 -14 8 -23 6 -10 -1
-18 3 -18 9 0 8 -3 8 -8 2 -9 -12 -46 -20 -39 -8 3 5 -3 14 -13 21 -17 10 -18
9 -13 -6 6 -14 4 -15 -8 -5 -12 10 -18 10 -28 0 -11 -10 -12 -7 -6 12 6 21 5
22 -8 10 -8 -8 -13 -17 -11 -20 2 -3 -18 -2 -45 2 -26 4 -56 7 -67 6 -12 -1
-19 4 -18 16 1 9 -2 17 -7 17 -5 0 -10 -10 -10 -22z m-17 -224 c5 -60 10 -69
33 -61 11 5 15 21 15 62 l0 55 87 -6 c48 -3 91 -8 96 -11 6 -3 26 -7 46 -9 20
-2 42 -11 48 -21 9 -11 13 -13 13 -4 0 8 11 2 27 -13 17 -18 30 -23 36 -17 7
7 15 5 24 -7 12 -16 13 -16 7 1 -5 13 -2 16 10 11 9 -3 13 -10 10 -15 -3 -5 4
-9 15 -9 12 0 21 -4 21 -9 0 -6 9 -8 20 -6 15 3 24 -3 30 -21 7 -19 15 -24 29
-19 13 4 20 0 24 -15 3 -11 10 -20 17 -20 6 0 8 4 5 10 -3 5 0 7 9 4 11 -4 13
-12 6 -30 -6 -15 -6 -24 0 -24 6 0 10 8 10 18 0 14 4 12 23 -9 12 -14 27 -24
33 -22 6 2 17 -3 24 -12 9 -11 9 -15 1 -15 -9 0 -9 -5 -1 -20 8 -15 17 -19 32
-14 14 4 18 2 14 -5 -4 -6 -2 -11 3 -11 6 0 11 -5 11 -11 0 -8 -4 -8 -14 0
-10 8 -16 9 -21 1 -3 -5 1 -11 9 -11 24 -2 30 -4 43 -12 17 -11 5 -37 -14 -30
-10 4 -7 -3 8 -20 28 -34 31 -34 24 1 -3 19 -1 17 8 -8 9 -27 17 -35 32 -33
16 2 16 1 -3 -7 -13 -6 -29 -7 -34 -3 -7 4 -8 1 -4 -6 5 -7 15 -10 23 -7 11 5
13 2 9 -9 -3 -9 1 -18 9 -22 12 -4 13 -8 4 -19 -10 -12 -9 -13 5 -8 12 5 15 2
10 -11 -6 -14 -3 -16 14 -10 13 4 22 2 22 -4 0 -6 -6 -11 -12 -11 -8 0 -9 -3
-3 -8 6 -4 11 -18 13 -32 2 -20 1 -22 -7 -10 -6 8 -11 13 -12 10 0 -3 -2 -13
-4 -22 -2 -13 1 -15 18 -9 12 5 22 13 22 19 0 6 3 13 8 16 4 3 5 3 2 -1 -3 -3
3 -16 12 -27 10 -12 14 -18 9 -13 -5 4 -18 0 -28 -10 -12 -10 -18 -12 -18 -4
0 7 -5 9 -11 5 -8 -4 -7 -9 2 -15 7 -4 17 -5 21 -3 4 3 8 -2 8 -10 0 -9 -6
-13 -14 -10 -8 3 -16 1 -20 -4 -6 -10 30 -9 40 1 11 11 21 8 27 -6 2 -6 -2
-18 -10 -26 -13 -12 -14 -11 -8 9 7 22 7 23 -18 4 l-24 -19 28 -13 c28 -14 48
-44 26 -39 -15 3 -18 -62 -4 -80 6 -9 5 -13 -4 -13 -8 0 -5 -6 7 -14 10 -8 21
-12 24 -10 2 3 -2 9 -10 14 -13 9 -13 10 0 10 11 1 10 4 -5 17 -16 13 -17 15
-2 10 11 -4 17 -1 17 9 0 9 -5 12 -12 8 -10 -6 -10 -5 -1 8 7 8 11 18 8 21 -3
4 -2 5 2 2 11 -9 16 -38 12 -77 -1 -7 1 -20 5 -28 5 -11 -1 -15 -24 -16 -16
-1 -30 3 -30 8 0 5 -5 6 -11 2 -7 -4 -7 -9 -1 -13 9 -6 42 -65 42 -76 0 -3 -6
-3 -12 1 -7 4 -10 4 -6 -1 4 -4 3 -14 -4 -22 -8 -10 -7 -17 6 -26 16 -12 16
-13 -3 -13 -12 0 -21 4 -21 8 0 4 -5 8 -11 8 -8 0 -8 -4 0 -14 10 -11 8 -16
-6 -24 -10 -6 -14 -14 -10 -19 5 -4 13 0 18 10 6 9 19 17 30 17 11 0 17 -5 14
-10 -4 -6 -11 -8 -16 -4 -6 3 -13 -3 -16 -15 -3 -12 -12 -21 -19 -21 -17 0
-18 -16 -2 -26 7 -4 8 -3 4 4 -4 7 -5 12 -2 12 3 0 10 -10 17 -21 10 -20 9
-21 -9 -17 -15 4 -19 2 -15 -8 3 -8 9 -11 14 -8 5 3 9 3 9 0 0 -2 3 -12 6 -21
4 -10 2 -15 -7 -13 -8 2 -13 -3 -11 -11 2 -9 -3 -11 -15 -7 -9 4 -14 4 -10 0
4 -4 1 -14 -6 -23 -11 -14 -10 -14 6 -2 15 12 17 11 17 -2 0 -9 -9 -21 -20
-27 -12 -6 -18 -16 -13 -22 3 -7 7 -22 8 -34 0 -15 -4 -20 -15 -16 -13 5 -13
4 0 -13 13 -17 13 -18 -1 -13 -12 5 -15 1 -13 -18 2 -24 -10 -33 -20 -15 -4 5
0 12 6 14 9 4 10 6 1 6 -20 2 -24 -16 -8 -33 14 -14 13 -17 -12 -30 -16 -8
-27 -17 -25 -20 6 -14 1 -27 -8 -21 -5 3 -10 -1 -10 -9 0 -9 -9 -21 -20 -28
-11 -7 -20 -21 -20 -31 0 -10 -5 -15 -10 -12 -7 4 -6 13 1 27 8 15 8 23 -1 32
-6 6 -11 7 -10 1 2 -5 1 -12 0 -15 -1 -3 -3 -18 -4 -35 -2 -35 -18 -37 -28 -3
-4 14 -6 17 -7 6 -1 -9 -4 -25 -7 -35 -5 -15 -4 -16 6 -3 9 13 11 12 8 -5 -3
-16 -10 -19 -36 -17 -27 2 -32 -1 -33 -20 -1 -13 -1 -26 0 -30 0 -4 -8 -5 -19
-3 -29 6 -66 -17 -62 -38 2 -10 -4 -20 -15 -24 -10 -4 -21 -11 -25 -17 -5 -7
-8 -3 -8 9 -1 18 -2 17 -15 -5 -8 -14 -14 -21 -15 -16 0 5 -9 1 -20 -9 -11
-10 -20 -15 -20 -11 0 3 -17 -2 -37 -12 -21 -10 -44 -17 -50 -16 -7 1 -18 2
-24 3 -5 0 -8 5 -5 10 4 5 -4 7 -16 3 l-22 -5 22 -8 c28 -10 29 -23 2 -14 -11
4 -20 2 -20 -4 0 -6 -4 -11 -10 -11 -5 0 -7 6 -4 13 3 8 -3 13 -16 13 -11 0
-20 -4 -20 -9 0 -5 -7 -6 -16 -3 -11 4 -15 2 -11 -7 3 -9 -5 -13 -33 -11 -21
1 -42 4 -48 8 -5 3 -13 -1 -16 -10 -3 -8 -11 -12 -17 -8 -6 3 -28 6 -50 6 -22
-1 -45 6 -54 14 -9 9 -15 11 -15 4 0 -7 -6 -8 -19 0 -25 13 -34 13 -26 0 3 -6
-1 -7 -9 -4 -9 3 -13 11 -9 17 4 6 0 8 -10 4 -10 -3 -17 -3 -17 2 0 5 -12 8
-27 7 -19 0 -27 4 -25 14 2 10 0 11 -10 3 -14 -11 -47 -9 -57 4 -3 4 -13 9
-21 11 -23 4 -120 51 -162 78 -97 61 -126 84 -194 147 -40 37 -98 102 -129
143 -61 81 -128 202 -119 215 3 5 1 9 -4 9 -9 0 -52 113 -58 155 -2 11 -8 39
-12 62 -5 24 -8 54 -7 68 2 14 -1 28 -6 31 -6 3 -4 15 5 30 14 20 14 23 1 18
-8 -4 -15 -1 -15 5 0 6 6 11 13 11 8 0 8 3 2 8 -6 4 -11 22 -11 40 0 24 4 31
14 27 12 -4 13 -3 2 10 -10 12 -9 16 4 21 11 4 14 13 10 29 -4 16 0 27 13 35
16 10 16 11 -4 7 -26 -6 -31 8 -8 17 8 3 15 11 15 18 0 9 -3 8 -10 -2 -6 -9
-10 -10 -10 -3 0 7 8 17 18 22 9 6 12 11 5 11 -8 0 -8 7 0 29 6 16 13 29 16
29 19 -2 22 4 10 19 -10 11 -10 14 -1 9 6 -4 12 -3 12 3 0 6 11 22 25 36 14
14 21 25 15 25 -5 0 -10 5 -10 11 0 5 5 7 10 4 6 -3 10 -1 10 5 0 6 5 8 13 4
8 -5 7 -2 -2 10 -13 15 -12 16 17 11 24 -4 32 -2 32 9 0 9 -7 12 -20 9 -11 -3
-20 0 -20 6 0 6 11 11 25 11 14 0 25 5 25 10 0 6 -5 10 -12 10 -9 0 -9 3 -1
11 13 13 57 -6 48 -20 -3 -5 2 -11 10 -15 19 -7 20 -26 1 -26 -8 0 -21 -17
-29 -37 -14 -36 -14 -40 14 -95 16 -31 33 -59 39 -63 6 -3 8 -11 5 -16 -4 -5
1 -12 10 -15 11 -5 13 -10 5 -19 -6 -7 -8 -19 -5 -26 7 -20 -70 -93 -91 -85
-12 4 -15 2 -11 -9 4 -8 -9 -31 -32 -55 -32 -34 -37 -46 -36 -83 1 -31 6 -43
18 -45 9 -2 17 -7 17 -12 0 -4 14 -6 30 -5 17 1 30 -2 30 -7 0 -6 -7 -8 -14
-5 -10 4 -13 1 -9 -9 4 -10 9 -12 18 -4 6 5 16 6 20 2 5 -4 6 -2 3 3 -3 6 0
16 8 23 10 9 14 9 14 1 0 -8 5 -7 17 2 9 8 14 9 11 4 -4 -6 2 -16 12 -22 15
-10 19 -9 23 8 3 10 1 19 -5 19 -5 0 -6 5 -3 10 3 6 15 10 25 10 13 0 17 5 14
15 -4 10 3 18 21 25 14 5 28 10 31 10 2 0 4 -28 4 -63 0 -69 16 -104 44 -94
17 7 19 26 16 125 -2 54 0 56 38 46 14 -4 21 -12 18 -20 -3 -8 1 -14 10 -14 8
0 13 -4 10 -9 -3 -5 2 -8 11 -7 9 0 22 -10 29 -23 11 -22 21 -34 84 -96 14
-14 33 -25 43 -25 13 0 17 -5 13 -15 -3 -8 -2 -14 2 -14 25 4 43 -3 39 -14 -3
-8 1 -14 9 -14 8 0 14 3 14 7 0 4 14 5 30 2 23 -3 36 2 53 20 12 14 23 31 25
39 6 23 -21 93 -40 107 -10 7 -18 21 -19 30 0 14 -2 13 -9 -3 -7 -18 -8 -17
-16 10 -8 31 -33 57 -46 49 -5 -3 -8 4 -8 15 0 12 -5 21 -11 21 -5 0 -8 -4 -4
-9 3 -5 1 -13 -5 -16 -6 -4 -10 -3 -8 2 3 14 -13 73 -21 73 -4 0 -15 16 -24
35 -11 24 -21 33 -32 29 -8 -4 -16 -1 -16 5 -1 6 -2 16 -3 21 0 6 -8 15 -16
20 -10 7 -11 10 -2 10 6 0 12 9 12 21 0 15 4 19 16 15 13 -5 14 -4 6 7 -13 15
-6 27 15 27 8 0 11 -5 7 -12 -5 -10 -3 -10 7 0 8 7 14 20 14 30 0 9 6 16 13
14 6 -1 12 3 12 9 0 5 4 8 8 5 4 -2 9 5 9 17 2 17 0 19 -7 7 -8 -12 -10 -11
-10 5 0 11 5 27 10 35 8 13 10 13 10 1 0 -12 3 -12 12 -3 10 10 10 15 -2 22
-8 5 -10 10 -4 10 13 0 7 48 -9 69 -17 21 -52 30 -91 24 -26 -4 -33 -9 -28
-21 4 -11 1 -14 -11 -9 -9 3 -19 1 -23 -5 -5 -7 -2 -8 6 -3 9 5 11 4 6 -4 -4
-6 -12 -9 -17 -6 -12 8 -57 -42 -61 -68 -3 -20 -4 -20 -20 -3 -10 10 -18 13
-18 7 0 -6 -7 -8 -15 -5 -8 4 -15 1 -15 -5 0 -6 -5 -11 -11 -11 -5 0 -8 3 -6
8 3 4 -6 15 -19 25 -21 16 -24 16 -24 2 0 -9 -4 -14 -9 -11 -5 3 -7 15 -4 26
4 16 2 19 -11 14 -11 -4 -16 -2 -14 6 2 7 -11 14 -31 16 -41 5 -62 21 -59 43
2 8 -3 16 -11 16 -8 0 -16 6 -19 14 -3 9 0 11 8 6 10 -6 12 -4 7 8 -4 12 7 22
43 40 27 14 47 27 44 30 -7 7 84 67 101 67 8 0 16 4 19 9 9 14 47 21 40 8 -3
-7 0 -5 8 4 7 9 19 14 27 11 8 -2 11 0 8 5 -4 6 3 10 16 9 12 -1 25 2 28 7 4
5 36 12 72 16 40 4 73 14 85 24 20 19 37 23 27 7 -10 -16 1 -11 16 7 12 14 12
16 0 8 -10 -5 -12 -4 -7 3 4 7 14 12 22 12 10 0 12 -5 8 -12 -6 -9 -3 -9 9 1
15 12 17 5 15 -93 -2 -87 1 -109 14 -122 9 -9 24 -14 32 -11 17 7 18 16 18
147 0 47 2 88 4 91 2 4 19 7 38 7 34 0 34 0 38 -54z m563 -84 c3 -5 1 -10 -4
-10 -6 0 -11 5 -11 10 0 6 2 10 4 10 3 0 8 -4 11 -10z m185 -150 c0 -5 -4 -10
-10 -10 -5 0 -10 5 -10 10 0 6 5 10 10 10 6 0 10 -4 10 -10z m120 -190 c0 -5
-5 -10 -11 -10 -5 0 -7 5 -4 10 3 6 8 10 11 10 2 0 4 -4 4 -10z m-1161 -227
c8 -15 8 -23 1 -23 -5 0 -10 7 -10 16 0 8 -4 12 -10 9 -6 -3 -7 1 -4 10 7 18
7 18 23 -12z m116 -143 c3 -5 2 -10 -4 -10 -5 0 -13 5 -16 10 -3 6 -2 10 4 10
5 0 13 -4 16 -10z m1155 -106 c0 -8 -5 -12 -10 -9 -6 4 -8 11 -5 16 9 14 15
11 15 -7z m5 -75 c-3 -4 -12 -6 -20 -3 -8 4 -13 10 -10 15 3 4 12 6 20 3 8 -4
13 -10 10 -15z m-76 -291 c-5 -10 -11 -18 -12 -18 -2 0 -3 8 -4 18 -1 10 5 19
12 19 10 0 11 -5 4 -19z m-1897 -11 c6 -11 5 -17 -2 -17 -5 0 -10 5 -10 10 0
6 -6 10 -14 10 -8 0 -17 4 -20 8 -3 5 4 8 16 7 11 -1 24 -9 30 -18z m98 -159
c0 -4 -4 -8 -9 -8 -6 0 -12 4 -15 8 -3 5 1 9 9 9 8 0 15 -4 15 -9z m-180 -70
c0 -4 -4 -10 -10 -13 -5 -3 -10 -11 -10 -17 0 -6 8 -4 18 5 12 11 22 13 35 6
11 -6 17 -7 17 0 0 5 -6 12 -12 14 -10 4 -10 6 -1 6 15 1 26 -16 18 -29 -4 -7
-12 -7 -25 0 -23 12 -33 0 -14 -18 8 -7 14 -9 14 -5 0 12 24 -16 26 -31 1 -9
-4 -12 -13 -9 -12 5 -12 7 -1 14 7 5 11 9 8 10 -3 0 -13 2 -22 4 -22 4 -23 -9
-3 -29 23 -22 18 -28 -9 -11 -15 10 -27 12 -30 6 -4 -5 2 -12 13 -16 11 -3 25
-13 32 -23 11 -14 11 -15 -1 -4 -20 17 -35 15 -20 -3 9 -10 9 -15 1 -15 -6 0
-11 5 -11 11 0 5 -4 8 -9 5 -5 -3 -7 -15 -4 -25 6 -22 -12 -37 -23 -20 -4 8
-3 9 4 5 7 -4 12 -1 12 8 0 9 -3 16 -7 16 -14 -1 -43 -27 -38 -34 3 -3 -2 0
-11 8 -13 11 -14 18 -4 36 11 20 10 21 -9 10 -12 -6 -21 -8 -21 -4 0 3 -6 2
-13 -4 -8 -7 -18 -7 -27 -2 -8 5 -17 7 -20 5 -4 -2 -7 3 -7 11 0 10 4 11 10 5
7 -7 16 -7 29 0 10 5 18 7 18 4 0 -3 10 -1 21 6 15 7 19 8 15 0 -4 -6 -2 -9 6
-6 8 3 14 14 15 25 2 18 0 19 -13 5 -9 -8 -20 -12 -26 -9 -6 4 0 13 16 21 15
8 24 18 21 23 -3 4 6 17 20 28 l26 20 -22 15 c-12 9 -18 20 -14 26 6 11 54
-16 55 -31z m205 9 c16 -5 15 -5 -4 -4 -14 1 -26 9 -28 17 -3 10 -2 11 4 4 4
-7 17 -14 28 -17z m-29 -18 c3 -6 1 -16 -6 -22 -10 -9 -12 -8 -6 7 5 14 2 17
-9 12 -9 -3 -13 -2 -10 4 8 13 22 13 31 -1z m-36 -39 c-6 -11 -18 -20 -28 -19
-14 0 -14 2 3 9 11 5 16 9 10 9 -5 1 -3 6 5 11 21 14 22 13 10 -10z m-56 2 c3
-5 -1 -9 -9 -9 -8 0 -15 4 -15 9 0 4 4 8 9 8 6 0 12 -4 15 -8z m120 0 c3 -5
-1 -9 -9 -9 -8 0 -15 4 -15 9 0 4 4 8 9 8 6 0 12 -4 15 -8z m61 -7 c13 0 20
-7 20 -20 0 -13 6 -19 15 -17 12 3 13 1 2 -10 -11 -11 -14 -10 -22 2 -8 12
-10 12 -10 1 0 -11 -3 -11 -17 0 -11 10 -14 10 -9 2 4 -9 1 -13 -9 -13 -11 0
-15 -5 -11 -15 9 -24 -30 -39 -55 -21 -12 8 -27 12 -34 10 -6 -3 -18 2 -25 11
-11 14 -14 14 -25 -1 -12 -18 -35 -12 -35 9 0 7 4 6 10 -3 8 -13 11 -12 23 3
12 17 14 17 26 3 8 -9 18 -16 24 -16 6 0 0 12 -14 26 -13 14 -19 24 -14 23 18
-5 55 12 49 23 -4 6 2 6 15 -1 11 -7 21 -9 21 -5 0 3 6 2 13 -3 16 -13 65 -15
72 -3 3 5 -9 7 -31 4 -32 -4 -35 -2 -24 11 7 9 16 12 19 8 3 -4 15 -8 26 -8z
m-184 -38 c-10 -9 -11 -8 -5 6 3 10 9 15 12 12 3 -3 0 -11 -7 -18z m262 -27
c3 -11 1 -20 -4 -20 -5 0 -9 5 -9 10 0 6 -4 10 -9 10 -4 0 -6 -12 -3 -27 3
-16 7 -22 9 -15 8 22 21 13 16 -10 -4 -14 -2 -20 3 -15 5 5 10 17 10 28 1 10
2 22 3 26 0 4 12 -7 24 -25 13 -17 27 -29 30 -26 3 3 11 -3 18 -14 7 -12 19
-18 28 -15 11 4 10 1 -3 -9 -11 -9 -16 -20 -12 -27 6 -9 11 -9 22 0 10 8 14 8
14 0 0 -10 -14 -15 -33 -12 -5 1 -6 -3 -2 -8 6 -10 -16 -8 -48 5 -17 6 -18 5
-6 -14 7 -12 16 -18 19 -14 9 13 30 12 30 0 0 -7 5 -5 11 5 11 19 29 23 29 6
0 -5 -4 -7 -10 -4 -16 10 -12 -7 5 -19 11 -8 12 -15 4 -26 -9 -13 -10 -13 -6
2 3 9 -1 19 -9 22 -12 5 -14 1 -9 -15 5 -16 3 -20 -6 -17 -8 3 -13 12 -11 22
2 9 -4 16 -13 16 -10 0 -13 -5 -9 -12 4 -7 -2 -4 -12 7 -10 11 -27 27 -38 36
-17 15 -16 16 18 14 20 0 36 2 37 5 0 3 2 15 5 27 4 24 -11 40 -21 23 -3 -5
-2 -10 3 -10 5 0 9 -7 9 -15 0 -8 -4 -15 -9 -15 -4 0 -8 5 -8 11 0 7 -8 18
-17 25 -11 8 -13 13 -6 14 15 0 5 30 -10 30 -6 0 -7 -3 -4 -7 4 -3 2 -12 -4
-19 -6 -8 -8 -21 -5 -30 3 -8 -1 -23 -10 -31 -15 -15 -14 -18 10 -30 26 -14
35 -33 15 -33 -5 0 -8 -4 -5 -9 3 -5 -2 -15 -12 -22 -15 -13 -16 -12 -3 4 7 9
10 17 6 17 -4 0 -1 8 6 17 12 15 12 16 -4 10 -10 -4 -16 -3 -13 2 3 5 -1 11
-9 15 -8 3 -12 12 -9 21 5 11 2 14 -12 9 -13 -4 -15 -3 -6 3 9 7 6 12 -13 21
-14 6 -25 8 -25 3 0 -5 6 -11 13 -14 6 -3 2 -4 -9 -4 -15 1 -20 6 -16 16 4 10
1 12 -9 6 -11 -6 -12 -5 -1 6 16 17 16 37 0 21 -7 -7 -19 -12 -27 -11 -13 0
-13 2 1 7 13 5 15 11 8 22 -7 10 -10 11 -10 3 0 -7 -5 -13 -12 -13 -6 0 -2 10
10 23 12 13 19 27 15 30 -3 4 -1 8 5 8 38 4 46 3 50 -9 2 -7 -2 -10 -11 -6
-16 6 -44 -32 -33 -44 3 -3 6 0 6 7 0 9 4 9 14 -1 8 -7 13 -17 13 -22 -1 -5
14 -10 33 -11 19 -1 29 0 22 2 -6 3 -10 9 -7 14 4 5 0 6 -8 3 -10 -3 -13 4
-13 28 2 53 28 79 39 38z m-227 -46 c1 -9 0 -13 -4 -10 -3 4 -7 14 -8 22 -1 9
0 13 4 10 3 -4 7 -14 8 -22z m172 6 c7 -11 9 -20 4 -20 -10 0 -32 22 -32 32 0
15 15 8 28 -12z m-232 -5 c-1 -8 -6 -18 -11 -22 -4 -5 -5 -2 0 6 6 11 4 13
-11 8 -18 -7 -18 -7 0 8 24 18 25 18 22 0z m25 -8 c-10 -9 -11 -8 -5 6 3 10 9
15 12 12 3 -3 0 -11 -7 -18z m89 -5 c0 -8 -1 -13 -3 -11 -1 2 -9 12 -16 22
-12 15 -12 17 3 11 9 -3 16 -13 16 -22z m-245 -32 c3 -6 -1 -7 -9 -4 -18 7
-21 14 -7 14 6 0 13 -4 16 -10z m35 0 c0 -5 -5 -10 -11 -10 -5 0 -7 5 -4 10 3
6 8 10 11 10 2 0 4 -4 4 -10z m246 -2 c3 -4 -1 -5 -10 -4 -8 1 -18 5 -22 8 -3
4 1 5 10 4 8 -1 18 -5 22 -8z m-251 -30 c5 4 5 1 1 -6 -6 -10 -11 -10 -22 -1
-8 6 -14 14 -14 16 0 3 6 0 13 -6 8 -6 18 -7 22 -3z m263 -13 c-3 -3 -9 2 -12
12 -6 14 -5 15 5 6 7 -7 10 -15 7 -18z m-363 -4 c3 -5 2 -12 -3 -15 -5 -3 -9
1 -9 9 0 17 3 19 12 6z m650 -26 c2 -14 0 -23 -5 -20 -4 2 -7 16 -7 30 0 32 9
25 12 -10z m-611 17 c3 -5 -1 -9 -9 -9 -8 0 -12 4 -9 9 3 4 7 8 9 8 2 0 6 -4
9 -8z m383 -14 c1 -10 -3 -18 -9 -18 -6 0 -8 3 -5 7 4 3 2 11 -3 18 -7 8 -6
12 3 12 7 0 14 -9 14 -19z m293 -24 c0 -2 -9 0 -20 6 -15 8 -20 8 -20 -1 0 -7
-3 -10 -6 -6 -3 3 -3 10 1 16 6 11 45 -2 45 -15z m-737 1 c-3 -9 -8 -14 -10
-11 -3 3 -2 9 2 15 9 16 15 13 8 -4z m480 -20 c-7 -21 -12 -19 -10 4 0 11 5
18 9 15 4 -3 5 -11 1 -19z m95 -20 c-3 -3 -9 2 -12 12 -6 14 -5 15 5 6 7 -7
10 -15 7 -18z m67 -15 c3 -6 -1 -7 -9 -4 -18 7 -21 14 -7 14 6 0 13 -4 16 -10z
m-517 -35 c-3 -3 -9 2 -12 12 -6 14 -5 15 5 6 7 -7 10 -15 7 -18z m-82 3 c3
-4 -1 -5 -10 -4 -8 1 -18 5 -22 8 -3 4 1 5 10 4 8 -1 18 -5 22 -8z m821 -13
c0 -8 -4 -15 -9 -15 -4 0 -8 7 -8 15 0 8 4 15 8 15 5 0 9 -7 9 -15z m114 -8
c-8 -8 -14 -7 -23 2 -11 10 -9 11 6 5 15 -6 17 -4 11 6 -6 9 -4 11 4 5 9 -5
10 -10 2 -18z m-74 -12 c0 -8 -4 -12 -9 -9 -5 3 -6 10 -3 15 9 13 12 11 12 -6z
m-362 -4 c3 -5 2 -12 -3 -15 -5 -3 -9 1 -9 9 0 17 3 19 12 6z m173 -16 c-3 -3
-9 2 -12 12 -6 14 -5 15 5 6 7 -7 10 -15 7 -18z m-592 -3 c-3 -3 0 -12 6 -21
10 -13 10 -14 -2 -4 -16 15 -23 46 -8 37 5 -3 7 -9 4 -12z m-142 0 c3 -5 -1
-9 -9 -9 -8 0 -12 4 -9 9 3 4 7 8 9 8 2 0 6 -4 9 -8z m196 2 c0 -8 -19 -13
-24 -6 -3 5 1 9 9 9 8 0 15 -2 15 -3z m41 -17 c-10 -9 -11 -8 -5 6 3 10 9 15
12 12 3 -3 0 -11 -7 -18z m1592 10 c11 -7 18 -27 19 -50 1 -20 5 -37 10 -37 4
0 8 -4 8 -9 0 -5 -10 -8 -23 -8 -13 0 -24 5 -24 13 0 7 5 10 10 7 6 -4 7 -1 1
8 -9 15 -11 20 -13 44 -2 22 -18 18 -24 -6 -8 -29 -27 -14 -27 22 0 24 4 29
23 29 13 0 31 -6 40 -13z m-636 -11 c0 -8 -6 -12 -15 -9 -11 5 -11 7 0 14 7 5
13 9 14 9 0 0 1 -6 1 -14z m28 4 c3 -5 1 -10 -4 -10 -6 0 -11 5 -11 10 0 6 2
10 4 10 3 0 8 -4 11 -10z m-339 -24 c0 -14 -5 -21 -9 -17 -4 4 -5 15 -1 24 9
24 12 21 10 -7z m442 -18 c0 -39 -1 -40 -9 -15 -6 24 -3 57 6 57 1 0 3 -19 3
-42z m-1340 7 c-3 -3 -9 2 -12 12 -6 14 -5 15 5 6 7 -7 10 -15 7 -18z m42 21
c0 -2 -8 -10 -17 -17 -16 -13 -17 -12 -4 4 13 16 21 21 21 13z m65 -15 c-3 -2
-16 -6 -28 -8 -15 -2 -18 0 -9 5 14 9 45 12 37 3z m50 -1 c3 -5 1 -10 -4 -10
-6 0 -11 5 -11 10 0 6 2 10 4 10 3 0 8 -4 11 -10z m905 2 c0 -4 -10 -9 -22 -9
-18 -2 -20 0 -8 7 18 12 30 13 30 2z m125 -1 c-9 -8 -36 -10 -30 -2 2 4 11 8
20 8 8 0 13 -3 10 -6z m65 -5 c-1 -5 4 -13 12 -18 10 -8 10 -9 -2 -5 -8 2 -14
10 -12 17 2 8 -3 10 -13 7 -8 -4 -15 -2 -15 4 0 6 7 9 16 7 8 -2 14 -7 14 -12z
m-690 0 c0 -2 -8 -10 -17 -17 -16 -13 -17 -12 -4 4 13 16 21 21 21 13z m-440
-26 c-6 -11 -15 -20 -21 -20 -6 0 -7 -5 -3 -12 5 -7 3 -8 -6 -3 -10 6 -9 11 5
22 11 7 15 13 9 13 -5 0 -2 5 6 10 21 14 22 13 10 -10z m73 3 c-3 -7 -6 -13
-8 -13 -2 0 -5 6 -8 13 -3 8 1 14 8 14 7 0 11 -6 8 -14z m37 -2 c0 -4 -6 -15
-13 -26 -11 -14 -16 -15 -22 -5 -6 9 -4 11 5 5 10 -6 12 -4 7 9 -5 11 -3 15 5
10 8 -5 9 -2 5 10 -4 10 -3 15 3 11 6 -3 10 -10 10 -14z m161 2 c13 -16 12
-17 -3 -4 -17 13 -22 21 -14 21 2 0 10 -8 17 -17z m1217 -4 c3 -12 2 -12 -6 0
-6 8 -15 10 -22 6 -9 -5 -11 -4 -6 4 10 15 28 10 34 -10z m-1595 -4 c-3 -9 -8
-14 -10 -11 -3 3 -2 9 2 15 9 16 15 13 8 -4z m245 -10 c-3 -3 -9 2 -12 12 -6
14 -5 15 5 6 7 -7 10 -15 7 -18z m932 17 c0 -5 -6 -16 -13 -27 -11 -14 -16
-15 -22 -5 -5 8 -4 11 3 6 6 -3 13 3 17 14 6 20 15 27 15 12z m-1205 -12 c3
-6 -1 -7 -9 -4 -18 7 -21 14 -7 14 6 0 13 -4 16 -10z m71 -5 c-1 -8 -6 -18
-11 -22 -4 -5 -5 -2 0 6 6 11 4 13 -11 8 -18 -7 -18 -7 0 8 24 18 25 18 22 0z
m2179 -2 c-15 -37 -13 -65 7 -81 11 -9 24 -26 30 -36 8 -16 7 -18 -6 -13 -9 4
-16 1 -17 -6 0 -9 -2 -8 -6 1 -4 10 -8 9 -17 -3 -10 -14 -12 -10 -11 22 1 21
-5 53 -12 72 -7 19 -11 36 -8 39 3 3 5 0 5 -7 0 -9 4 -9 14 1 8 7 12 16 9 21
-2 4 1 7 7 7 8 0 9 -7 5 -17z m-2075 -13 c0 -5 -4 -10 -10 -10 -5 0 -10 5 -10
10 0 6 5 10 10 10 6 0 10 -4 10 -10z m71 -13 c-10 -9 -11 -8 -5 6 3 10 9 15
12 12 3 -3 0 -11 -7 -18z m353 15 c3 -5 -1 -9 -9 -9 -8 0 -15 4 -15 9 0 4 4 8
9 8 6 0 12 -4 15 -8z m673 -23 c2 -18 1 -20 -6 -9 -5 8 -8 17 -5 21 2 4 -1 10
-6 12 -6 3 -5 4 1 3 7 -1 14 -13 16 -27z m552 8 c0 -9 -2 -8 -6 1 -2 6 -10 9
-15 6 -7 -4 -8 -2 -4 5 9 13 26 5 25 -12z m98 16 c-4 -3 2 -12 13 -20 21 -15
27 -48 11 -58 -5 -3 -12 -1 -16 5 -4 6 -11 8 -16 5 -5 -4 -9 0 -9 7 0 8 -3 9
-8 3 -13 -18 -39 -16 -45 4 -5 22 10 42 28 35 6 -3 18 2 25 11 7 8 15 15 18
15 3 0 2 -3 -1 -7z m-1887 -18 c5 3 12 0 16 -6 4 -8 3 -9 -4 -5 -7 4 -12 1
-12 -6 0 -9 -3 -9 -10 2 -5 8 -9 20 -9 25 0 6 3 4 6 -3 2 -6 9 -10 13 -7z
m1018 -10 c-3 -3 -9 2 -12 12 -6 14 -5 15 5 6 7 -7 10 -15 7 -18z m-960 -2
c-2 -10 -10 -17 -16 -15 -7 1 -12 -7 -12 -17 0 -14 6 -18 23 -15 20 4 20 4 2
-5 -11 -5 -24 -5 -28 -1 -13 12 -3 45 12 42 9 -2 11 3 8 13 -4 8 -2 15 4 15 6
0 9 -8 7 -17z m40 3 c-7 -8 -15 -12 -17 -11 -5 6 10 25 20 25 5 0 4 -6 -3 -14z
m62 4 c-8 -5 -19 -10 -25 -10 -5 0 -3 5 5 10 8 5 20 10 25 10 6 0 3 -5 -5 -10z
m200 -10 c-6 -11 -12 -20 -14 -20 -2 0 -2 9 1 20 3 11 9 20 15 20 5 0 4 -9 -2
-20z m275 11 c3 -5 2 -12 -3 -15 -5 -3 -9 1 -9 9 0 17 3 19 12 6z m85 5 c0 -2
-7 -7 -16 -10 -8 -3 -12 -2 -9 4 6 10 25 14 25 6z m442 -13 c-6 -3 -9 -10 -6
-15 4 -7 2 -8 -5 -4 -9 6 -9 11 0 22 6 8 15 12 18 8 3 -4 0 -9 -7 -11z m-972
-3 c0 -5 -9 -14 -20 -20 -16 -9 -18 -8 -14 5 3 8 10 12 15 9 5 -3 9 0 9 5 0 6
2 11 5 11 3 0 5 -4 5 -10z m361 -13 c-10 -9 -11 -8 -5 6 3 10 9 15 12 12 3 -3
0 -11 -7 -18z m959 16 c-8 -3 -22 -11 -30 -17 -13 -10 -13 -9 -1 7 7 9 21 17
30 16 13 0 14 -1 1 -6z m-1539 -26 c-10 -9 -11 -8 -5 6 3 10 9 15 12 12 3 -3
0 -11 -7 -18z m135 4 c-13 -15 -14 -20 -4 -24 7 -2 11 -7 8 -10 -3 -3 -16 4
-30 16 -16 13 -19 18 -7 14 11 -4 20 -1 23 8 4 8 11 15 17 15 5 0 2 -9 -7 -19z
m116 1 c-7 -2 -10 -8 -7 -13 4 -5 -1 -6 -10 -3 -11 4 -14 2 -9 -9 3 -8 1 -17
-4 -21 -5 -3 -8 5 -7 16 1 12 7 24 13 26 7 2 10 8 7 13 -4 5 2 6 11 2 11 -4
13 -8 6 -11z m495 -4 c2 -17 0 -19 -7 -8 -5 8 -6 18 -4 22 8 12 10 10 11 -14z
m140 0 c2 -17 0 -19 -7 -8 -5 8 -6 18 -4 22 8 12 10 10 11 -14z m941 -9 c-3
-8 -7 -3 -11 10 -4 17 -3 21 5 13 5 -5 8 -16 6 -23z m-781 6 c0 -8 -4 -12 -9
-9 -5 3 -6 10 -3 15 9 13 12 11 12 -6z m-1017 -14 c-6 -13 -17 -17 -30 -14
-11 3 -20 8 -20 10 0 3 9 3 19 0 12 -3 22 1 25 9 3 8 8 14 11 14 3 0 1 -9 -5
-19z m1145 9 c3 -6 -1 -7 -9 -4 -18 7 -21 14 -7 14 6 0 13 -4 16 -10z m545 6
c0 -2 -8 -10 -17 -17 -16 -13 -17 -12 -4 4 13 16 21 21 21 13z m-1140 -11 c0
-2 -9 -9 -20 -15 -12 -6 -20 -7 -20 -1 0 5 8 12 18 14 9 3 18 5 20 6 1 0 2 -1
2 -4z m-111 -28 c0 -9 -2 -9 -5 -1 -3 7 -15 10 -27 8 -21 -4 -21 -4 -2 5 23
10 35 5 34 -12z m33 1 c-7 -7 -12 -8 -12 -2 0 14 12 26 19 19 2 -3 -1 -11 -7
-17z m403 12 c-3 -5 -14 -10 -23 -9 -14 0 -13 2 3 9 27 11 27 11 20 0z m565 6
c0 -2 -7 -7 -16 -10 -8 -3 -12 -2 -9 4 6 10 25 14 25 6z m-1220 -21 c0 -8 -4
-15 -10 -15 -5 0 -7 7 -4 15 4 8 8 15 10 15 2 0 4 -7 4 -15z m670 0 c-7 -8
-17 -15 -23 -15 -6 0 -2 7 9 15 25 19 30 19 14 0z m-861 -8 c6 -8 8 -17 4 -20
-10 -10 -33 -8 -33 3 0 5 8 7 18 4 14 -5 14 -3 -2 10 -11 9 -15 16 -9 16 6 0
16 -6 22 -13z m1401 -7 c8 -5 12 -11 10 -14 -3 -2 -14 2 -24 10 -22 15 -10 19
14 4z m-1235 -9 c3 -5 2 -12 -3 -15 -5 -3 -9 1 -9 9 0 17 3 19 12 6z m701 -11
c0 -12 -4 -16 -9 -11 -5 5 -6 14 -3 20 10 15 12 14 12 -9z m920 -6 c1 -9 0
-13 -4 -10 -3 4 -7 14 -8 22 -1 9 0 13 4 10 3 -4 7 -14 8 -22z m-1743 1 c-3
-9 -8 -14 -10 -11 -3 3 -2 9 2 15 9 16 15 13 8 -4z m157 7 c0 -5 -7 -17 -15
-28 -14 -18 -14 -17 -4 9 12 27 19 34 19 19z m1167 -14 c-3 -8 -6 -5 -6 6 -1
11 2 17 5 13 3 -3 4 -12 1 -19z m-742 -11 c4 5 2 -3 -4 -15 -7 -13 -15 -21
-18 -18 -4 3 -13 -3 -20 -14 -12 -17 -12 -24 -2 -36 6 -8 9 -17 6 -20 -3 -3
-11 4 -17 16 -9 17 -8 26 5 46 10 16 12 24 4 24 -7 0 -9 3 -6 6 4 4 13 1 22
-6 21 -17 19 -1 -2 24 -18 21 -18 21 3 3 11 -9 24 -14 29 -10z m198 -2 c-7
-21 -12 -19 -10 4 0 11 5 18 9 15 4 -3 5 -11 1 -19z m-702 1 c-8 -10 -9 -16
-1 -21 5 -3 10 -1 10 5 0 6 5 8 10 5 6 -3 10 -1 10 6 0 7 3 9 7 5 5 -4 0 -14
-11 -21 -14 -11 -22 -11 -36 -2 -17 10 -17 12 -2 24 22 16 27 16 13 -1z m559
-6 c0 -5 -9 -10 -21 -10 -11 0 -17 -4 -14 -10 3 -5 -5 -15 -19 -21 -14 -7 -23
-16 -20 -21 3 -5 12 -4 20 3 10 8 14 8 14 0 0 -6 -5 -11 -10 -11 -6 0 -3 -11
5 -24 11 -17 13 -26 5 -31 -12 -8 -40 12 -40 28 0 6 6 2 14 -9 8 -10 17 -16
21 -12 4 4 -5 19 -20 34 -26 26 -27 28 -9 41 10 7 22 13 27 13 4 0 5 5 2 10
-5 8 17 23 43 29 1 1 2 -3 2 -9z m167 -10 c1 -11 -2 -20 -7 -20 -6 0 -7 17 -1
38 3 8 7 -1 8 -18z m268 2 c-3 -3 -11 0 -18 7 -9 10 -8 11 6 5 10 -3 15 -9 12
-12z m-1075 -7 c0 -12 -19 -12 -23 0 -4 9 -1 12 9 8 7 -3 14 -7 14 -8z m698 6
c11 -7 10 -9 -3 -14 -9 -4 -14 -3 -10 2 3 5 -1 12 -7 14 -7 3 -8 6 -3 6 6 0
16 -3 23 -8z m317 -20 c-6 -5 -25 10 -25 20 0 5 6 4 14 -3 8 -7 12 -15 11 -17z
m97 22 c-6 -2 -10 -8 -8 -12 3 -4 -5 -8 -16 -8 -20 -2 -20 -1 -2 12 11 8 24
14 29 14 6 0 4 -3 -3 -6z m241 0 c-7 -2 -19 -2 -25 0 -7 3 -2 5 12 5 14 0 19
-2 13 -5z m-1419 -15 c-7 -10 -24 -10 -24 0 0 5 7 9 15 9 8 0 12 -4 9 -9z
m732 -14 c-3 -7 3 -18 12 -23 9 -6 13 -10 7 -11 -22 0 -36 17 -28 36 6 17 5
18 -13 4 -10 -8 -22 -19 -26 -25 -5 -6 -8 -6 -8 1 0 14 42 43 53 37 5 -3 6
-11 3 -19z m89 16 c-3 -5 -1 -10 4 -10 6 0 11 -5 11 -11 0 -8 -5 -8 -15 1 -17
14 -20 30 -4 30 5 0 7 -4 4 -10z m292 -4 c-3 -8 -2 -17 4 -20 5 -2 4 -3 -2 -2
-15 3 -21 36 -7 36 6 0 8 -6 5 -14z m120 -8 c2 -17 0 -19 -7 -8 -5 8 -6 18 -4
22 8 12 10 10 11 -14z m-439 0 c-2 -6 -15 -13 -29 -15 -18 -2 -20 -1 -9 6 8 5
18 7 22 5 4 -3 8 0 8 5 0 6 3 11 6 11 3 0 4 -5 2 -12z m627 -6 c-3 -3 -11 0
-18 7 -9 10 -8 11 6 5 10 -3 15 -9 12 -12z m-368 -7 c0 -8 -4 -12 -9 -9 -4 3
-8 9 -8 15 0 5 4 9 8 9 5 0 9 -7 9 -15z m158 5 c4 -6 -1 -7 -11 -3 -13 5 -15
3 -9 -7 5 -9 4 -11 -4 -6 -6 4 -9 12 -6 17 8 12 22 12 30 -1z m692 4 c-3 -3
-12 -4 -19 -1 -8 3 -5 6 6 6 11 1 17 -2 13 -5z m-1914 -19 c-3 -9 -8 -14 -10
-11 -3 3 -2 9 2 15 9 16 15 13 8 -4z m1180 2 c3 -8 2 -20 -3 -26 -5 -9 -7 -4
-7 13 0 29 2 32 10 13z m210 0 c3 -8 0 -14 -7 -14 -7 0 -13 6 -13 14 0 7 4 13
8 13 4 0 9 -6 12 -13z m-1366 -12 c0 -8 -4 -12 -9 -9 -5 3 -6 10 -3 15 9 13
12 11 12 -6z m702 -12 c1 5 6 5 11 2 6 -4 8 -11 4 -16 -8 -14 -34 9 -33 30 0
12 2 11 9 -4 5 -11 9 -16 9 -12z m98 7 c-1 -11 -5 -20 -9 -20 -3 0 -6 9 -5 20
1 11 5 20 9 20 3 0 6 -9 5 -20z m303 5 c0 -1 -12 -2 -26 -2 -17 0 -22 2 -13 7
10 7 39 3 39 -5z m291 -8 c-10 -9 -11 -8 -5 6 3 10 9 15 12 12 3 -3 0 -11 -7
-18z m-544 -12 c-7 -13 -14 -20 -15 -14 -2 5 2 16 8 24 18 21 20 18 7 -10z
m106 10 c-3 -9 -8 -14 -10 -11 -3 3 -2 9 2 15 9 16 15 13 8 -4z m240 0 c-3 -9
-8 -14 -10 -11 -3 3 -2 9 2 15 9 16 15 13 8 -4z m747 -8 c0 -2 -8 -3 -18 -3
-10 0 -19 6 -19 13 0 8 6 9 19 2 10 -5 18 -11 18 -12z m-1256 -27 c-6 -5 -24
21 -24 34 0 6 6 1 14 -10 8 -10 12 -21 10 -24z m306 15 c0 -7 -8 -16 -17 -20
-15 -5 -16 -4 -5 6 15 16 16 33 0 23 -7 -4 -8 -3 -4 5 9 14 26 5 26 -14z m47
5 c-1 -21 -10 -18 -13 5 -1 8 2 15 6 15 5 0 8 -9 7 -20z m192 10 c-1 -3 3 -16
10 -30 11 -22 10 -23 -2 -8 -8 10 -16 15 -19 12 -4 -3 -9 0 -13 6 -3 6 -3 10
2 9 20 -4 27 2 13 12 -10 7 -11 9 -2 7 8 -2 12 -6 11 -8z m94 -7 c-5 -12 -3
-14 8 -8 8 5 11 4 6 0 -13 -15 -36 -14 -49 3 -11 15 -11 15 3 4 14 -10 18 -10
23 3 3 8 8 15 10 15 3 0 2 -7 -1 -17z m-1345 -18 c-3 -3 -9 2 -12 12 -6 14 -5
15 5 6 7 -7 10 -15 7 -18z m775 12 c3 -8 -1 -14 -8 -14 -7 0 -11 6 -8 14 3 7
6 13 8 13 2 0 5 -6 8 -13z m180 -6 c3 -15 1 -18 -11 -14 -11 5 -13 3 -7 -7 5
-9 4 -11 -3 -6 -9 5 -8 12 1 26 14 24 14 24 20 1z m135 -1 c-7 -11 -15 -15
-17 -9 -2 6 3 15 10 20 20 12 21 11 7 -11z m52 5 c5 3 12 0 16 -6 5 -8 3 -9
-6 -4 -10 6 -12 3 -7 -11 7 -18 6 -18 -6 -2 -8 10 -17 15 -21 11 -4 -4 -4 1 0
12 5 11 9 14 12 7 2 -7 8 -10 12 -7z m54 -1 c3 -8 2 -12 -4 -9 -6 3 -10 10
-10 16 0 14 7 11 14 -7z m247 -1 c13 -16 12 -17 -3 -4 -17 13 -22 21 -14 21 2
0 10 -8 17 -17z m-1392 -7 c9 -11 9 -16 0 -22 -8 -5 -9 -3 -4 6 6 10 4 12 -8
7 -11 -4 -14 -2 -10 9 6 17 8 17 22 0z m56 4 c3 -5 1 -10 -4 -10 -6 0 -11 5
-11 10 0 6 2 10 4 10 3 0 8 -4 11 -10z m732 -5 c0 -8 -4 -12 -9 -9 -5 3 -6 10
-3 15 9 13 12 11 12 -6z m-36 -18 c-10 -9 -11 -8 -5 6 3 10 9 15 12 12 3 -3 0
-11 -7 -18z m-61 3 c0 -5 -4 -10 -10 -10 -5 0 -10 5 -10 10 0 6 5 10 10 10 6
0 10 -4 10 -10z"/>
<path d="M770 2249 c0 -5 5 -7 10 -4 6 3 10 8 10 11 0 2 -4 4 -10 4 -5 0 -10
-5 -10 -11z"/>
<path d="M696 2211 c-4 -5 -2 -12 3 -15 5 -4 12 -2 15 3 4 5 2 12 -3 15 -5 4
-12 2 -15 -3z"/>
<path d="M615 2151 c-3 -5 -2 -12 3 -15 5 -3 9 1 9 9 0 17 -3 19 -12 6z"/>
<path d="M1410 2132 c-35 -15 -62 -41 -57 -55 3 -8 0 -20 -6 -27 -9 -10 -9
-11 1 -6 7 5 12 1 12 -9 0 -10 -5 -13 -12 -9 -7 4 2 -6 20 -23 17 -17 32 -38
32 -47 0 -9 7 -19 15 -22 11 -5 13 -10 5 -19 -11 -13 11 -41 23 -29 4 4 11 -5
16 -19 6 -14 20 -31 31 -37 12 -6 19 -18 16 -25 -3 -8 4 -17 16 -21 15 -4 17
-8 8 -14 -7 -5 -9 -16 -5 -30 4 -14 3 -20 -3 -16 -5 3 -13 -1 -16 -10 -3 -9
-11 -12 -18 -8 -8 5 -9 2 -5 -10 4 -10 1 -24 -7 -32 -17 -16 -30 -19 -21 -4 3
6 -1 7 -10 4 -10 -4 -15 -14 -12 -25 3 -11 1 -17 -4 -13 -5 3 -9 -2 -9 -10 0
-9 -3 -16 -7 -16 -16 0 -57 -73 -55 -97 2 -28 48 -89 54 -72 3 8 10 5 21 -5
15 -15 17 -15 17 -2 0 9 7 16 16 16 8 0 12 -4 9 -10 -3 -6 1 -7 9 -4 9 3 14
10 11 14 -7 11 24 22 38 13 6 -4 8 0 4 10 -3 9 -1 19 5 23 6 4 8 3 4 -4 -3 -6
-2 -13 4 -17 5 -3 10 1 10 10 0 11 5 15 15 11 8 -3 14 -2 14 2 -1 4 2 17 6 30
8 25 25 28 44 10 10 -11 11 -10 6 5 -5 12 -2 17 9 17 9 0 16 8 16 18 1 15 2
14 12 -3 6 -11 14 -22 18 -25 3 -3 31 -39 62 -80 87 -118 119 -144 177 -146
53 -1 51 -4 71 73 4 19 4 31 -1 27 -5 -3 -9 1 -9 9 0 8 -7 20 -15 27 -17 14
-21 35 -5 25 6 -3 10 -1 10 6 0 6 -8 9 -19 6 -21 -5 -36 24 -20 40 5 5 0 9
-11 10 -14 1 -17 -3 -13 -15 3 -9 3 -14 -1 -10 -12 10 -14 42 -4 61 5 9 5 17
1 16 -23 -4 -43 2 -38 11 6 10 -19 43 -26 35 -2 -2 -5 11 -6 28 -2 24 0 28 7
17 13 -20 13 -4 0 21 -7 12 -7 19 -1 19 5 0 8 9 6 20 -2 11 0 18 4 16 8 -5 36
43 33 56 -1 4 4 5 12 2 7 -3 16 2 20 11 5 13 1 15 -15 10 -20 -7 -20 -6 -4 19
20 30 27 33 19 9 -5 -15 -4 -15 4 -3 7 9 7 18 1 26 -6 7 -4 15 5 23 11 9 14 3
13 -36 0 -77 2 -83 22 -83 17 0 19 9 20 113 1 121 -5 138 -53 157 -32 12 -78
-8 -113 -49 -13 -14 -23 -21 -23 -16 -1 6 -7 -1 -15 -15 -7 -14 -17 -25 -22
-25 -4 0 -7 -3 -6 -7 2 -5 -5 -9 -15 -10 -46 -4 -57 -2 -57 9 0 6 -3 15 -7 19
-9 8 -2 -31 8 -49 5 -8 2 -8 -9 2 -9 7 -17 23 -17 35 0 15 -3 17 -9 8 -6 -10
-10 -10 -20 2 -9 11 -9 15 1 19 9 4 8 6 -3 6 -16 1 -34 27 -30 44 1 5 -3 6 -8
3 -5 -4 -12 0 -14 6 -4 10 -6 10 -6 0 -1 -7 -5 -11 -11 -7 -5 3 -6 13 -3 22 5
12 2 15 -10 10 -10 -4 -18 1 -22 13 -3 10 -16 22 -28 26 -12 3 -28 11 -35 17
-17 14 -42 17 -62 9z"/>
<path d="M1633 2015 c0 -8 4 -12 9 -9 5 3 6 10 3 15 -9 13 -12 11 -12 -6z"/>
<path d="M1360 1972 c0 -12 19 -26 26 -19 2 2 -2 10 -11 17 -9 8 -15 8 -15 2z"/>
<path d="M450 1930 c0 -5 5 -10 11 -10 5 0 7 5 4 10 -3 6 -8 10 -11 10 -2 0
-4 -4 -4 -10z"/>
<path d="M417 1873 c-10 -9 -9 -33 1 -33 4 0 8 9 8 20 0 23 0 22 -9 13z"/>
<path d="M410 1820 c0 -5 5 -10 10 -10 6 0 10 5 10 10 0 6 -4 10 -10 10 -5 0
-10 -4 -10 -10z"/>
<path d="M2241 1650 c-7 -4 -12 -13 -10 -19 3 -8 10 -8 23 2 21 15 9 31 -13
17z"/>
<path d="M1901 1624 c0 -11 3 -14 6 -6 3 7 2 16 -1 19 -3 4 -6 -2 -5 -13z"/>
<path d="M1368 1583 c7 -3 16 -2 19 1 4 3 -2 6 -13 5 -11 0 -14 -3 -6 -6z"/>
<path d="M2235 1570 c-3 -5 -1 -10 4 -10 6 0 11 5 11 10 0 6 -2 10 -4 10 -3 0
-8 -4 -11 -10z"/>
<path d="M1924 1558 c-3 -4 2 -8 10 -8 8 0 17 4 20 8 3 5 -2 9 -10 9 -8 0 -17
-4 -20 -9z"/>
<path d="M728 1542 c-10 -2 -18 -8 -18 -13 0 -13 27 -11 35 2 9 13 4 16 -17
11z"/>
<path d="M695 1490 c3 -5 8 -10 11 -10 2 0 4 5 4 10 0 6 -5 10 -11 10 -5 0 -7
-4 -4 -10z"/>
<path d="M1010 1391 c0 -6 4 -13 10 -16 6 -3 7 1 4 9 -7 18 -14 21 -14 7z"/>
<path d="M1050 1353 c0 -6 8 -17 18 -24 16 -13 16 -13 2 6 -8 11 -16 22 -17
24 -2 2 -3 0 -3 -6z"/>
<path d="M1547 1266 c4 -5 0 -7 -9 -4 -8 4 -20 -2 -27 -13 -6 -11 -16 -17 -20
-14 -5 3 -7 -4 -4 -16 4 -15 0 -22 -16 -26 -11 -3 -21 -9 -21 -14 0 -4 -35 -6
-77 -3 -43 3 -95 5 -115 4 -25 0 -38 4 -38 12 0 9 -3 9 -8 2 -11 -17 -40 -24
-46 -11 -3 9 -7 8 -15 -3 -10 -15 -16 -11 -68 37 -8 7 -19 10 -27 7 -7 -3 -19
3 -27 13 -13 17 -13 17 6 3 18 -13 19 -13 8 1 -20 25 -90 24 -121 -3 -28 -23
-32 -30 -32 -49 0 -5 -6 -7 -12 -3 -8 5 -8 1 1 -10 13 -15 13 -19 0 -27 -35
-24 -50 -29 -61 -23 -6 4 -8 3 -4 -4 3 -6 2 -13 -3 -16 -5 -4 -12 -2 -16 4 -4
6 -12 7 -18 3 -7 -4 -16 -8 -22 -8 -5 0 -10 -6 -10 -12 0 -7 -4 -14 -10 -15
-14 -3 -55 -53 -55 -67 0 -6 -6 -11 -12 -11 -10 0 -10 -3 0 -9 8 -5 15 -20 15
-33 1 -15 8 -25 17 -24 11 1 14 -8 12 -36 -2 -21 1 -38 6 -38 17 0 34 29 28
46 -5 12 -2 15 11 9 31 -13 63 -14 63 -2 0 7 4 6 10 -3 8 -12 10 -12 16 3 3 9
10 14 15 11 9 -5 38 -13 69 -18 8 -1 29 -8 45 -15 52 -23 100 -19 124 9 11 14
18 31 16 38 -3 7 2 15 11 19 13 5 13 7 2 14 -10 7 -9 9 5 9 9 0 17 7 17 15 0
18 5 18 30 5 16 -9 18 -8 13 7 -6 14 0 13 31 -6 l37 -23 6 21 c3 13 11 20 19
17 8 -3 14 0 14 6 0 6 3 8 7 5 3 -4 -3 -18 -15 -30 -17 -18 -19 -24 -8 -24 8
0 13 4 11 8 -3 4 6 14 20 23 16 10 26 12 30 5 4 -6 4 -13 1 -16 -3 -4 -6 -1
-6 7 0 10 -3 10 -15 0 -17 -14 -20 -30 -4 -30 5 0 7 5 3 12 -5 7 -2 9 8 5 9
-3 20 -1 26 5 8 8 13 3 18 -15 3 -15 10 -24 15 -21 5 3 9 -3 9 -13 0 -15 2
-16 10 -3 8 13 10 12 10 -2 0 -10 5 -18 11 -18 6 0 17 -6 25 -14 7 -8 19 -16
26 -18 7 -3 12 -34 14 -92 1 -64 6 -92 17 -104 14 -13 18 -13 33 -1 14 11 15
28 11 112 -5 86 -4 98 10 93 11 -4 13 -2 9 9 -3 8 -1 15 3 15 5 0 11 -5 13
-11 3 -8 10 -5 22 6 14 14 20 15 26 5 6 -10 9 -10 13 1 3 9 8 6 15 -11 6 -14
11 -21 11 -17 1 5 30 -7 64 -27 83 -46 117 -52 151 -25 18 14 26 30 26 53 0
30 -33 88 -55 97 -5 2 -9 8 -7 12 1 5 -2 6 -8 2 -12 -8 -42 20 -32 30 4 4 0 5
-8 3 -23 -8 -73 21 -66 38 3 8 1 14 -4 14 -6 0 -10 -6 -10 -12 0 -9 -4 -8 -10
2 -9 13 -10 13 -11 0 0 -8 -5 -2 -9 14 -5 16 -6 34 -3 39 3 6 1 7 -5 3 -11 -7
-13 -3 -16 31 -1 6 -10 21 -21 34 -11 12 -14 19 -7 15 6 -4 12 -2 12 3 0 6 -5
11 -11 11 -7 0 -19 8 -28 19 -17 19 -85 35 -74 17z m-757 -160 c0 -2 -6 -9
-14 -15 -11 -9 -16 -9 -22 0 -4 7 -3 9 4 5 6 -3 13 -2 17 4 6 10 15 14 15 6z
m470 -106 c0 -5 -7 -7 -15 -4 -8 4 -15 8 -15 10 0 2 7 4 15 4 8 0 15 -4 15
-10z m-455 -80 c-3 -5 -11 -10 -16 -10 -6 0 -7 5 -4 10 3 6 11 10 16 10 6 0 7
-4 4 -10z"/>
<path d="M2175 1080 c-3 -5 -1 -10 4 -10 6 0 11 5 11 10 0 6 -2 10 -4 10 -3 0
-8 -4 -11 -10z"/>
<path d="M1785 1050 c3 -5 8 -10 11 -10 2 0 4 5 4 10 0 6 -5 10 -11 10 -5 0
-7 -4 -4 -10z"/>
<path d="M2115 960 c3 -5 8 -10 11 -10 2 0 4 5 4 10 0 6 -5 10 -11 10 -5 0 -7
-4 -4 -10z"/>
<path d="M2077 923 c-10 -9 -9 -23 1 -23 5 0 9 7 9 15 0 17 -1 18 -10 8z"/>
<path d="M1827 704 c-3 -5 1 -15 9 -22 16 -14 18 -5 5 17 -5 7 -11 9 -14 5z"/>
<path d="M1100 629 c0 -5 -6 -7 -12 -3 -7 4 -9 3 -5 -1 13 -15 36 -14 30 1 -6
17 -13 18 -13 3z"/>
<path d="M1145 612 c-4 -12 -3 -13 10 -2 12 10 15 10 15 -1 0 -12 2 -12 9 0 7
11 9 11 13 0 3 -10 6 -10 10 2 4 10 -2 15 -23 15 -16 1 -30 -5 -34 -14z"/>
<path d="M1686 613 c-6 -14 -5 -15 5 -6 7 7 10 15 7 18 -3 3 -9 -2 -12 -12z"/>
<path d="M1510 605 c0 -8 4 -15 10 -15 5 0 7 7 4 15 -4 8 -8 15 -10 15 -2 0
-4 -7 -4 -15z"/>
<path d="M1640 616 c0 -2 8 -10 18 -17 15 -13 16 -12 3 4 -13 16 -21 21 -21
13z"/>
<path d="M1470 595 c0 -5 5 -17 10 -25 5 -8 10 -10 10 -5 0 6 -5 17 -10 25 -5
8 -10 11 -10 5z"/>
<path d="M215 860 c10 -11 20 -20 23 -20 3 0 -3 9 -13 20 -10 11 -20 20 -23
20 -3 0 3 -9 13 -20z"/>
<path d="M205 810 c-3 -5 -4 -14 -1 -19 4 -5 0 -12 -6 -14 -10 -4 -10 -6 0 -6
8 -1 10 -6 5 -13 -4 -7 -8 -17 -9 -23 -1 -5 -3 -14 -4 -20 -7 -32 1 -35 31
-14 27 19 29 23 15 31 -13 8 -15 13 -5 24 6 7 16 11 23 8 6 -3 2 2 -8 10 -11
9 -23 16 -28 16 -4 0 -8 5 -8 12 0 9 3 9 12 0 7 -7 19 -12 27 -12 14 0 7 15
-7 15 -4 0 -12 4 -19 8 -6 4 -14 3 -18 -3z m15 -55 c-8 -9 -8 -15 0 -20 5 -3
10 -12 9 -18 0 -9 -2 -8 -6 1 -2 6 -8 10 -13 7 -7 -4 -7 17 0 35 1 3 2 9 1 13
-1 5 3 6 9 2 8 -5 8 -11 0 -20z"/>
<path d="M397 766 c-8 -8 -18 -12 -23 -8 -5 4 0 -3 10 -16 11 -12 21 -20 24
-17 3 2 11 -3 18 -13 10 -13 15 -14 24 -5 15 14 3 36 -15 29 -7 -2 -16 2 -19
10 -9 23 -7 26 7 17 15 -9 53 -16 45 -7 -3 3 -12 6 -20 8 -7 1 -18 5 -25 9 -6
4 -18 1 -26 -7z m53 -46 c0 -5 -4 -10 -10 -10 -5 0 -10 5 -10 10 0 6 5 10 10
10 6 0 10 -4 10 -10z"/>
<path d="M565 626 c11 -8 24 -12 29 -8 5 3 1 9 -10 13 -31 12 -39 10 -19 -5z"/>
<path d="M2280 216 c0 -2 7 -7 16 -10 8 -3 12 -2 9 4 -6 10 -25 14 -25 6z"/>
<path d="M1935 280 c-4 -6 -13 -9 -21 -6 -7 3 -16 0 -20 -6 -5 -7 -2 -8 6 -3
10 6 12 4 7 -8 -4 -11 -2 -14 9 -10 7 3 14 9 14 14 0 6 10 1 22 -11 12 -11 24
-17 27 -14 3 4 0 9 -7 11 -6 3 -10 8 -7 13 3 4 -2 13 -9 19 -10 9 -16 9 -21 1z"/>
<path d="M1370 2589 c0 -5 5 -7 10 -4 6 3 10 8 10 11 0 2 -4 4 -10 4 -5 0 -10
-5 -10 -11z"/>
<path d="M1407 2590 c14 -15 73 -24 73 -11 0 15 -44 25 -48 12 -3 -9 -8 -9
-20 1 -14 10 -15 10 -5 -2z"/>
<path d="M1070 2566 c0 -2 7 -7 16 -10 8 -3 12 -2 9 4 -6 10 -25 14 -25 6z"/>
<path d="M223 2292 c-18 -11 1 -36 22 -28 9 3 15 11 13 18 -5 15 -20 20 -35
10z"/>
<path d="M75 2150 c10 -11 24 -20 31 -20 7 0 14 -5 16 -11 2 -6 11 -10 20 -8
29 7 -13 51 -52 55 -32 4 -33 4 -15 -16z"/>
<path d="M195 1340 c-3 -6 1 -7 9 -4 18 7 21 14 7 14 -6 0 -13 -4 -16 -10z"/>
<path d="M206 1322 c-3 -5 1 -9 9 -9 8 0 15 4 15 9 0 4 -4 8 -9 8 -6 0 -12 -4
-15 -8z"/>
<path d="M232 1237 c10 -8 14 -18 10 -22 -4 -5 -1 -5 6 -1 17 10 15 14 -10 26
-21 10 -21 10 -6 -3z"/>
<path d="M265 1129 c-11 -16 -1 -19 13 -3 7 8 8 14 3 14 -5 0 -13 -5 -16 -11z"/>
<path d="M230 984 c0 -4 8 -13 18 -20 16 -13 16 -14 0 -8 -10 3 -18 2 -18 -4
0 -12 33 -9 37 4 2 5 -6 15 -17 22 -11 7 -20 9 -20 6z"/>
<path d="M201 957 c-8 -10 -7 -14 2 -14 8 0 14 6 14 14 0 7 -1 13 -2 13 -2 0
-8 -6 -14 -13z"/>
<path d="M218 932 c-16 -2 -28 -8 -28 -13 0 -6 4 -8 9 -5 4 3 16 -3 26 -14 17
-19 41 -18 30 1 -4 5 -1 9 4 9 15 0 14 17 -1 22 -7 2 -25 2 -40 0z m23 -29
c13 -16 12 -17 -3 -4 -17 13 -22 21 -14 21 2 0 10 -8 17 -17z"/>
<path d="M35 901 c-3 -5 -2 -12 3 -15 5 -3 9 1 9 9 0 17 -3 19 -12 6z"/>
<path d="M90 900 c0 -5 5 -10 11 -10 5 0 7 5 4 10 -3 6 -8 10 -11 10 -2 0 -4
-4 -4 -10z"/>
<path d="M363 885 c0 -9 4 -14 9 -13 5 2 10 8 10 13 0 5 -5 11 -10 13 -5 1 -9
-4 -9 -13z"/>
<path d="M6 858 c3 -5 10 -6 15 -3 13 9 11 12 -6 12 -8 0 -12 -4 -9 -9z"/>
<path d="M110 851 c16 -13 20 -21 11 -21 -8 0 -22 7 -31 15 -14 13 -17 13 -17
1 0 -8 3 -14 6 -14 3 1 14 -2 23 -6 9 -4 24 -4 32 1 13 7 10 12 -17 27 l-32
18 25 -21z"/>
<path d="M5 819 c-4 -6 -5 -12 -2 -15 2 -3 7 2 10 11 7 17 1 20 -8 4z"/>
<path d="M43 822 c-8 -5 -7 -14 6 -31 14 -18 20 -21 26 -11 5 8 4 11 -2 7 -6
-4 -14 0 -17 9 -9 22 -8 26 6 18 7 -4 8 -3 4 4 -8 14 -8 14 -23 4z"/>
<path d="M110 795 c5 -7 7 -15 3 -18 -3 -4 -1 -7 5 -7 6 0 10 8 9 18 0 10 -7
19 -14 19 -9 0 -10 -4 -3 -12z"/>
<path d="M30 784 c0 -13 18 -39 24 -34 2 3 -2 14 -10 24 -8 11 -14 16 -14 10z"/>
<path d="M86 755 c4 -8 8 -15 10 -15 2 0 4 7 4 15 0 8 -4 15 -10 15 -5 0 -7
-7 -4 -15z"/>
<path d="M57 676 c-3 -9 -16 -13 -31 -12 -29 4 -35 -8 -10 -18 8 -3 12 -11 9
-17 -4 -6 6 -4 23 5 17 9 29 22 28 31 -3 22 -13 28 -19 11z m13 -21 c0 -7 -30
-13 -34 -7 -3 4 4 9 15 9 10 1 19 0 19 -2z"/>
<path d="M1715 420 c3 -5 8 -10 11 -10 2 0 4 5 4 10 0 6 -5 10 -11 10 -5 0 -7
-4 -4 -10z"/>
<path d="M1719 348 c-6 -21 -5 -38 1 -38 5 0 8 9 7 20 -1 17 -5 26 -8 18z"/>
<path d="M1744 336 c1 -8 5 -18 8 -22 4 -3 5 1 4 10 -1 8 -5 18 -8 22 -4 3 -5
-1 -4 -10z"/>
<path d="M2397 269 c7 -7 15 -10 18 -7 3 3 -2 9 -12 12 -14 6 -15 5 -6 -5z"/>
<path d="M2454 222 c3 -6 -2 -15 -11 -21 -10 -6 -13 -11 -8 -12 6 0 19 -2 31
-3 11 -1 21 3 21 10 0 7 -7 10 -15 6 -10 -3 -13 -1 -8 6 3 6 1 14 -5 18 -7 4
-9 3 -5 -4z"/>
<path d="M1960 185 c0 -5 5 -17 10 -25 5 -8 10 -10 10 -5 0 6 -5 17 -10 25 -5
8 -10 11 -10 5z"/>
<path d="M2096 182 c-2 -4 -1 -14 4 -22 7 -11 9 -9 7 8 -1 24 -3 26 -11 14z"/>
<path d="M2410 170 c-9 -6 -10 -10 -3 -10 6 0 15 5 18 10 8 12 4 12 -15 0z"/>
<path d="M630 126 c0 -9 5 -16 10 -16 6 0 10 4 10 9 0 6 -4 13 -10 16 -5 3
-10 -1 -10 -9z"/>
<path d="M414 110 c1 -11 10 -25 20 -33 18 -13 18 -14 -5 -12 -13 1 -24 8 -24
16 -1 8 -6 13 -13 11 -7 -1 -26 5 -42 13 -27 14 -30 14 -40 -5 -7 -14 -7 -26
-1 -39 6 -10 8 -20 6 -23 -2 -2 5 -4 16 -5 11 -1 17 2 14 7 -3 4 6 15 18 23
21 14 24 13 35 -4 7 -11 18 -16 27 -13 9 4 15 1 15 -7 0 -7 7 -3 16 9 11 16
21 21 33 16 14 -6 36 -10 64 -13 5 -1 5 -7 1 -13 -6 -10 -4 -10 7 -3 8 6 31
10 51 10 31 -1 36 1 28 14 -5 9 -17 16 -27 16 -10 0 -19 6 -19 13 -1 6 -2 20
-3 29 0 9 -4 13 -8 9 -12 -12 -9 -40 6 -52 11 -9 12 -12 1 -19 -9 -6 -11 -4
-6 4 5 8 3 12 -5 10 -26 -3 -39 1 -39 12 0 5 4 8 9 4 18 -11 23 17 7 33 -10
10 -16 13 -15 7 6 -35 -24 -44 -48 -15 -12 15 -13 14 -17 -22 -2 -18 -22 -20
-36 -3 -9 11 -9 19 -2 28 8 10 6 13 -7 14 -12 1 -18 -5 -17 -17z m-69 -20 c4
-6 11 -7 17 -4 7 4 8 2 4 -5 -6 -9 -11 -9 -21 -1 -8 7 -20 8 -26 4 -8 -4 -9
-3 -5 4 9 15 23 15 31 2z m153 -15 c-3 -3 -9 2 -12 12 -6 14 -5 15 5 6 7 -7
10 -15 7 -18z m27 5 c3 -5 1 -10 -4 -10 -6 0 -11 5 -11 10 0 6 2 10 4 10 3 0
8 -4 11 -10z m-185 -20 c0 -5 -2 -10 -4 -10 -3 0 -8 5 -11 10 -3 6 -1 10 4 10
6 0 11 -4 11 -10z"/>
<path d="M2396 122 c-3 -5 1 -9 9 -9 8 0 12 4 9 9 -3 4 -7 8 -9 8 -2 0 -6 -4
-9 -8z"/>
<path d="M2145 77 c19 -16 19 -16 -10 -11 -24 3 -27 2 -12 -6 9 -6 17 -16 17
-22 0 -7 -4 -7 -12 -1 -7 5 -24 10 -38 11 -24 1 -24 0 -6 -13 10 -8 23 -12 28
-9 5 3 16 0 24 -7 8 -7 14 -8 13 -3 -3 19 1 34 12 34 5 0 7 -6 3 -12 -4 -7 -3
-10 1 -5 11 10 14 47 4 47 -4 0 -16 3 -26 6 -16 6 -16 5 2 -9z"/>
<path d="M2306 78 c3 -4 9 -8 15 -8 5 0 9 4 9 8 0 5 -7 9 -15 9 -8 0 -12 -4
-9 -9z"/>
<path d="M2333 53 c-3 -10 -8 -22 -10 -28 -3 -5 3 -1 11 9 16 20 21 36 11 36
-3 0 -8 -8 -12 -17z"/>
<path d="M2367 33 c6 -16 10 -16 16 0 3 8 -1 14 -8 14 -7 0 -11 -6 -8 -14z"/>
<path d="M2347 18 c-3 -10 5 -14 32 -15 24 0 28 1 11 4 -14 3 -28 9 -31 15 -4
6 -8 4 -12 -4z"/>
</g>
</svg>
